<svg xmlns="http://www.w3.org/2000/svg" width="221" height="246" viewBox="0 0 221 246" version="1.1"><path d="M 104.350 6.994 C 102.534 7.727, 45.195 40.860, 21.027 55.142 C 16.152 58.023, 12.502 61.056, 10.527 63.866 L 7.500 68.173 7.500 124.001 L 7.500 179.828 10.500 184.081 C 13.014 187.644, 17.633 190.734, 39 203.145 C 66.580 219.165, 69.290 220.750, 84.813 229.941 C 111.342 245.648, 110.599 245.611, 133 232.386 C 137.125 229.951, 155.800 219.043, 174.500 208.147 C 203.578 191.203, 208.934 187.719, 211.500 184.082 L 214.500 179.830 214.783 126.396 C 214.965 92.159, 214.699 71.595, 214.043 69.158 C 212.655 64.005, 207.719 58.728, 200.500 54.680 C 197.200 52.829, 181.900 43.969, 166.500 34.991 C 128.747 12.981, 127.238 12.105, 121.500 8.862 C 116.303 5.925, 108.978 5.127, 104.350 6.994 M 100.500 26.430 C 96.650 28.785, 78.200 39.588, 59.500 50.437 C 40.800 61.286, 24.933 70.892, 24.241 71.785 C 23.259 73.050, 23.039 84.618, 23.241 124.411 L 23.500 175.415 27.500 178.319 C 35.905 184.420, 108.617 225.973, 110.912 225.986 C 113.329 226, 114.772 225.262, 131.500 215.459 C 136.450 212.558, 152.200 203.436, 166.500 195.187 C 180.800 186.938, 193.963 178.977, 195.750 177.496 L 199 174.803 199 123.902 C 199 76.674, 198.873 72.874, 197.243 71.250 C 196.276 70.287, 185.814 63.893, 173.993 57.041 C 162.172 50.189, 143.764 39.501, 133.086 33.291 C 119.224 25.229, 112.789 22.021, 110.586 22.075 C 108.813 22.118, 104.521 23.971, 100.500 26.430 M 104.532 60.948 C 103.287 62.962, 85.012 116.594, 85.006 118.250 C 85.001 119.684, 85.902 120, 90 120 C 92.750 120, 95 119.838, 95 119.639 C 95 119.440, 99.465 106.205, 104.922 90.228 C 110.379 74.250, 114.579 60.913, 114.256 60.589 C 113.289 59.622, 105.166 59.923, 104.532 60.948 M 62.199 76.674 L 44.897 86.256 45.199 90.232 L 45.500 94.208 62.500 103.528 L 79.500 112.848 79.810 108.301 C 79.980 105.800, 79.896 103.171, 79.622 102.458 C 79.349 101.745, 74.604 98.763, 69.078 95.831 C 63.552 92.899, 59.028 90.275, 59.024 90 C 59.020 89.725, 63.735 87.025, 69.500 84 L 79.982 78.500 79.991 72.750 C 79.996 69.588, 79.888 67.021, 79.750 67.047 C 79.612 67.072, 71.714 71.405, 62.199 76.674 M 160.750 67.579 C 160.338 67.994, 160 69.383, 160 70.667 C 160 72.310, 160.574 73, 161.941 73 C 164.709 73, 165.450 74.718, 165.491 81.228 C 165.517 85.240, 166.035 87.464, 167.221 88.649 C 168.787 90.215, 168.791 90.432, 167.274 91.542 C 166.125 92.382, 165.571 94.504, 165.427 98.621 C 165.314 101.854, 165.171 104.849, 165.110 105.275 C 165.050 105.701, 163.844 106.489, 162.431 107.026 C 160.545 107.743, 159.946 108.602, 160.181 110.252 C 160.452 112.163, 161.076 112.482, 164.336 112.378 C 169.953 112.200, 171.415 110.166, 172 101.717 C 172.435 95.442, 172.794 94.371, 174.750 93.513 C 176.229 92.864, 177 91.660, 177 90 C 177 88.340, 176.229 87.136, 174.750 86.487 C 172.794 85.629, 172.435 84.558, 172 78.283 C 171.676 73.613, 170.946 70.513, 169.931 69.499 C 168.163 67.735, 161.897 66.425, 160.750 67.579 M 119.198 73.249 L 119.500 78.498 129.750 83.996 C 135.387 87.019, 140 89.757, 140 90.080 C 140 90.403, 136.215 92.623, 131.589 95.012 C 118.970 101.530, 118.827 101.678, 119.191 107.775 L 119.500 112.951 136.500 103.586 L 153.500 94.220 153.802 90.230 C 154.102 86.251, 154.085 86.230, 147.302 82.483 C 126.772 71.142, 120.830 68, 119.912 68 C 119.314 68, 119.020 70.161, 119.198 73.249 M 56.714 121.620 C 56.321 122.012, 56 126.095, 56 130.692 L 56 139.051 53.050 137.526 C 48.744 135.299, 42.890 135.604, 38.898 138.263 C 33.632 141.771, 31.525 147.031, 31.595 156.500 C 31.665 166.006, 34.179 172.007, 39.173 174.590 C 43.250 176.698, 52.135 176.093, 54.985 173.514 C 56.774 171.895, 57 171.874, 57 173.326 C 57 175.060, 60.614 176.414, 63.671 175.825 C 65.389 175.494, 65.500 173.837, 65.500 148.486 L 65.500 121.500 61.464 121.203 C 59.244 121.040, 57.106 121.227, 56.714 121.620 M 153.501 124.136 C 153.206 124.906, 153.085 136.778, 153.232 150.518 L 153.500 175.500 159 175.500 L 164.500 175.500 164.789 166.750 L 165.078 158 170.673 158 C 182.335 158, 189.224 153.361, 190.534 144.623 C 191.908 135.461, 189.147 128.689, 182.662 125.315 C 178.261 123.026, 154.299 122.057, 153.501 124.136 M 165 140.500 L 165 148 170 148 C 175.958 148, 179 145.619, 179 140.955 C 179 136.247, 175.141 133, 169.545 133 L 165 133 165 140.500 M 82.500 137.349 C 75.650 140.537, 73 145.808, 73 156.249 C 73 169.788, 78.730 176.021, 91.136 175.978 C 96.958 175.958, 106 173.233, 106 171.499 C 106 170.809, 103.061 164.992, 102.724 165.015 C 102.601 165.023, 100.700 165.679, 98.500 166.471 C 92.382 168.675, 88.294 168.385, 85.455 165.545 C 84.105 164.195, 83 162.170, 83 161.045 C 83 159.098, 83.578 159, 95 159 L 107 159 107 154.020 C 107 147.562, 104.530 141.514, 100.812 138.866 C 97.032 136.175, 86.838 135.330, 82.500 137.349 M 110.012 137.698 C 110.019 138.139, 111.856 143.450, 114.095 149.500 C 116.333 155.550, 119.256 163.625, 120.589 167.445 C 121.923 171.265, 123.573 174.746, 124.257 175.180 C 125.823 176.174, 132.133 176.211, 133.614 175.235 C 134.226 174.831, 136.552 169.325, 138.783 163 C 141.014 156.675, 144.001 148.452, 145.420 144.727 C 146.839 141.002, 148 137.716, 148 137.425 C 148 137.134, 145.637 137.031, 142.750 137.198 L 137.500 137.500 133.828 148.827 C 131.808 155.056, 129.858 160.906, 129.495 161.827 C 129.069 162.908, 127.302 158.899, 124.503 150.500 L 120.172 137.500 115.086 137.198 C 112.289 137.031, 110.006 137.256, 110.012 137.698 M 46 144.720 C 42.278 146.219, 40.312 152.967, 41.518 160.106 C 42.772 167.529, 48.039 170.117, 53.365 165.927 C 55.783 164.026, 56 163.251, 56 156.538 C 56 151.025, 55.569 148.712, 54.250 147.153 C 52.357 144.917, 48.406 143.751, 46 144.720 M 85 146 C 83.900 147.100, 83 148.900, 83 150 C 83 151.810, 83.667 152, 90 152 C 96.333 152, 97 151.810, 97 150 C 97 147.052, 93.439 144, 90 144 C 88.333 144, 86.111 144.889, 85 146" stroke="none" fill="#1c1c1c" fill-rule="evenodd"/></svg>