<svg xmlns="http://www.w3.org/2000/svg" viewBox="0 0 512 512">
  <defs>
    <linearGradient id="bg" x1="0" y1="0" x2=".5" y2="1">
      <stop offset="0" stop-color="#0d1526"/>
      <stop offset="1" stop-color="#22366d"/>
    </linearGradient>
  </defs>

  <rect width="512" height="512" rx="162" fill="url(#bg)"/>

  <circle cx="52" cy="48" r="2" fill="#ffffff" opacity="0.45"/>
  <circle cx="460" cy="40" r="1.5" fill="#22d3ee" opacity="0.45"/>
  <circle cx="450" cy="460" r="2" fill="#ffffff" opacity="0.45"/>
  <circle cx="55" cy="440" r="1.5" fill="#22d3ee" opacity="0.45"/>

  <g transform="translate(-363,-391) scale(1.5) rotate(2)">
    <path d="m 0,0 c 38.071,-26.299 47.61,-78.484 21.312,-116.555 -26.304,-38.071 -78.489,-47.611 -116.557,-21.312 -38.071,26.304 -47.612,78.489 -21.311,116.557 C -90.255,16.761 -38.071,26.304 0,0" fill="#ffffff" opacity=".08" transform="matrix(1.3333333,0,0,-1.3333333,458.349,296.415)"/>
    <path d="m 0,0 c 32.384,-22.374 40.5,-66.765 18.126,-99.151 -22.372,-32.383 -66.763,-40.5 -99.148,-18.125 -32.385,22.374 -40.5,66.762 -18.126,99.146 C -76.775,14.256 -32.386,22.372 0,0" fill="#ffffff" opacity="0.15" transform="matrix(1.3333333,0,0,-1.3333333,448.867,310.139)"/>
    <path d="m 0,0 c 32.384,-22.374 40.5,-66.765 18.126,-99.151 -1.924,-2.784 -4.012,-5.383 -6.242,-7.807 -21.357,-8.591 -50.961,-4.233 -76.509,13.415 -25.547,17.649 -40.095,43.797 -39.618,66.812 1.477,2.941 3.17,5.816 5.095,8.601 C -76.775,14.256 -32.386,22.372 0,0" fill="#22d3ee" opacity="0.12" transform="matrix(1.3333333,0,0,-1.3333333,448.867,310.139)"/>
    <path d="m 0,0 c -10.806,-15.643 -72.074,7.949 -136.841,52.698 -64.769,44.744 -108.515,93.7 -97.707,109.34 12.248,17.731 75.504,-15.918 78.181,-17.292 -2.067,-1.673 -4.054,-3.473 -5.947,-5.399 -20.087,8.248 -34.863,10.318 -39.098,4.19 -7.943,-11.497 24.207,-47.477 71.811,-80.361 47.6,-32.889 92.628,-50.225 100.569,-38.731 4.236,6.131 -2.929,19.218 -17.751,35.085 1.132,2.455 2.111,4.951 2.947,7.475 C -41.498,64.886 12.249,17.731 0,0" fill="#22d3ee" opacity="0.4" transform="matrix(1.3333333,0,0,-1.3333333,543.57,507.421)"/>
    <path d="m 0,0 c -2.523,3.254 -5.481,6.699 -8.83,10.282 1.132,2.455 2.111,4.951 2.947,7.475 0.598,-0.544 4.569,-4.04 9.932,-9.233 C 2.873,5.636 1.524,2.79 0,0 m -130.566,101.521 c 6.782,-3.189 11.464,-5.67 12.152,-6.023 -2.067,-1.673 -4.054,-3.473 -5.947,-5.399 -4.539,1.864 -8.805,3.411 -12.744,4.623 2.071,2.408 4.254,4.677 6.539,6.799" fill="#22d3ee" opacity="0.24" transform="matrix(1.3333333,0,0,-1.3333333,492.966,441.757)"/>
  </g>

  <g transform="translate(-105,194) scale(1.03) rotate(-14)">
    <g transform="matrix(-0.26597355,-0.26597355,0.63371805,-0.63371805,38.735973,548.75353)">
      <path d="M 58.955,347.234 C -9.038,242.851 73.06,233.528 52.119,90.624 103.476,158.041 117.815,240.735 139.375,265.194 c 14.88,19.209 22.219,42.395 20.219,66.217 -0.202,18.854 23.625,41.698 17.11,59.301 -34.644,-27.749 -94.233,-9.662 -117.749,-43.478 z" fill="#00ddff" opacity=".25"/>
      <path d="m 161.781,377.714 c 0.393,-19.99 -23.796,-28.662 -33.526,-44.275 -16.115,-11.925 -21.219,-30.487 -21.575,-48.766 -1.31,-29.234 24.748,-203.543 62.711,-250.356 -14.548,71.886 21.569,167.643 43.883,199.321 15.1,24.614 20.776,52.953 15.337,80.838 -2.672,22.247 -21.101,35.615 -31.07,55.569 -9.973,12.017 -23.544,13.155 -35.76,7.669 z" fill="#00ddff" opacity=".35"/>
      <path d="m 157.116,377.313 c 0.297,-16.32 -17.999,-23.4 -25.359,-36.145 -12.189,-9.735 -16.05,-24.889 -16.319,-39.812 -0.991,-23.866 23.326,-150.046 42.827,-204.387 -13.307,123.179 20.921,136.861 37.799,162.723 11.421,20.094 15.715,43.23 11.601,65.995 -2.021,18.162 -10.734,34.717 -18.275,51.007 -7.543,9.81 -23.035,5.099 -32.274,0.619 z" fill="#00ddff" opacity=".5"/>
      <path d="m 86.963,353.927 c -69.841,-71.705 6.257,-76.698 -13.112,-175.175 23.003,46.417 42.078,81.286 50.454,114.244 12.395,11.638 55.225,82.683 52.658,95.564 -26.992,-15.367 -69.89,-13.986 -90,-34.633 z" fill="#ffffff" opacity=".5"/>
      <path d="M 100.91,349.609 C 59.132,309.95 90.332,286.664 89.958,237.129 c 11.549,43.353 48.08,54.035 47.611,80.078 6.035,7.79 37.634,63.344 34.992,70.483 -14.05,-11.254 -55.822,-23.055 -71.651,-38.081 z" fill="#ffffff" opacity=".7"/>
      <path d="m 157.08,371.835 c -14.756,-23.241 -9.282,-49.17 -3.006,-77.451 2.859,19.189 14.767,42.476 21.498,50.112 4.646,5.997 6.937,13.236 6.313,20.674 -0.063,5.886 -3.051,13.019 -5.085,18.515 -10.816,-8.664 -12.377,-1.292 -19.72,-11.85 z" fill="#ffffff" opacity=".9"/>
    </g>
    <g transform="matrix(1.4938907,1.5212294,-1.5212294,1.4938907,-120.80487,-819.40453)">
      <path d="m 481.668,67.248 c -8.024,6.942 -69.699,65.129 -22.982,176.556 h 46.542 0.171 C 552.116,132.378 490.442,74.2 482.417,67.257 l -0.749,-0.009 z" fill="#ffffff"/>
      <path d="m 450.565,112.996 11.32,-22.608 15.794,-19.46 4.475,-3.72 16.848,19.174 13.162,23.18 1.053,4.865 -62.916,-0.286" fill="#22d3ee"/>
      <path d="m 444.247,199.134 c 0,0 -27.904,-0.378 -11.056,76.694 0,0 1.579,-64.354 16.321,-56.42" fill="#22d3ee"/>
      <path d="m 519.919,199.134 c 0,0 27.904,-0.378 11.056,76.694 0,0 -1.579,-64.354 -16.321,-56.42" fill="#22d3ee"/>
      <path d="m 451.881,228.037 6.844,15.74 46.858,-0.286 5.528,-15.454 z" fill="#22d3ee" opacity=".6"/>
      <path d="m 498.627,156.855 a 16.584,18.029 0 1 1 -33.169,0 16.584,18.029 0 1 1 33.169,0 z" fill="#22d3ee" opacity=".4"/>
      <path d="m 492.836,156.855 a 10.793,11.733 0 1 1 -21.586,0 10.793,11.733 0 1 1 21.586,0 z" fill="#22d3ee"/>
      <path d="m 509.357,226.151 c 0,0 21.06,-52.656 4.212,-103.309 0.79,89.858 -21.849,103.309 -21.849,103.309 z" fill="#22d3ee" opacity=".1"/>
    </g>
  </g>

  <text x="172" y="142" text-anchor="middle" font-family="system-ui,sans-serif" font-weight="800" font-size="90" fill="#ffffff" letter-spacing="8">SGU</text>
</svg>